<svg version="1.1" id="Layer_1" xmlns="http://www.w3.org/2000/svg" xmlns:xlink="http://www.w3.org/1999/xlink" x="0px" y="0px"
	 width="100%" viewBox="0 0 116 61" enable-background="new 0 0 116 61" xml:space="preserve">
<path fill="#FFFFFF" opacity="1.000000" stroke="none" 
	d="
M76.000000,62.000000 
	C50.666672,62.000000 25.833342,62.000000 1.000010,62.000000 
	C1.000007,41.666676 1.000007,21.333349 1.000003,1.000018 
	C39.666653,1.000012 78.333305,1.000012 116.999969,1.000006 
	C116.999977,21.333315 116.999977,41.666630 116.999985,61.999969 
	C103.500000,62.000000 90.000000,62.000000 76.000000,62.000000 
M15.028740,42.530312 
	C15.684536,42.688576 16.340332,42.846840 17.068222,43.595444 
	C19.785959,44.772923 22.503696,45.950401 25.221434,47.127876 
	C25.424059,46.622028 25.626686,46.116177 25.829311,45.610329 
	C23.622324,42.953121 20.335482,42.920246 16.972118,42.468079 
	C16.315569,42.310966 15.659020,42.153854 14.668855,41.489841 
	C13.891647,40.944054 13.114440,40.398266 12.337234,39.852474 
	C12.187562,40.262997 12.037890,40.673523 11.888218,41.084045 
	C12.924637,41.390228 13.961056,41.696411 15.028740,42.530312 
M100.452614,54.345760 
	C100.676750,54.788048 100.900894,55.230335 101.125038,55.672623 
	C101.435806,55.159859 101.746574,54.647099 102.276649,53.583065 
	C102.570854,53.067959 102.865059,52.552856 103.836281,52.160465 
	C105.853485,54.878273 104.238426,56.061340 101.851433,57.025677 
	C100.424248,57.602253 99.071884,58.364040 96.412964,59.665760 
	C104.741798,60.155590 106.177101,58.937321 107.856499,51.857048 
	C108.118080,51.559891 108.379662,51.262733 108.641251,50.965580 
	C108.214439,50.686005 107.787636,50.406433 106.618889,49.897312 
	C105.585564,49.920601 104.552246,49.943890 103.168060,49.401180 
	C102.768036,49.263451 102.368019,49.125721 101.349472,48.940140 
	C99.912102,48.621983 98.474739,48.303825 96.438156,47.726490 
	C95.363762,47.920670 94.289368,48.114849 93.214981,48.309029 
	C93.293167,48.737637 93.371361,49.166248 93.449547,49.594860 
	C94.631119,49.418423 95.812683,49.241985 97.366959,49.566780 
	C98.521584,50.380333 99.676208,51.193886 100.949707,52.673862 
	C100.937294,53.124943 100.924881,53.576027 100.452614,54.345760 
M31.386377,23.054224 
	C30.844952,23.626455 30.303526,24.198687 29.104275,25.102484 
	C28.221571,25.742235 27.338867,26.381985 25.925995,27.405979 
	C25.925995,24.806858 25.925995,22.919403 25.925995,20.877686 
	C24.371365,20.877686 22.861986,20.877686 21.548695,20.877686 
	C21.548695,25.962023 21.548695,30.691633 21.548695,35.653061 
	C22.850859,35.653061 24.258638,35.653061 25.569553,35.653061 
	C25.788885,33.384842 25.991716,31.287258 26.194548,29.189672 
	C26.660551,29.100399 27.126553,29.011126 27.592554,28.921852 
	C28.820042,31.082607 30.047529,33.243362 31.413132,35.647243 
	C32.488728,35.647243 34.043232,35.647243 35.692486,35.647243 
	C33.953159,32.149597 32.334824,28.895252 31.175121,25.306992 
	C31.540842,24.875229 31.906563,24.443468 32.904327,23.918140 
	C33.787739,23.199888 34.671146,22.481638 36.048462,21.361816 
	C33.686958,20.789928 32.160427,20.420246 29.338747,19.736917 
	C30.864836,21.627306 31.428701,22.325773 31.386377,23.054224 
M4.825860,23.199594 
	C4.849567,26.731771 4.873273,30.263950 4.430638,34.161102 
	C4.636825,34.663456 4.843011,35.165813 5.772555,35.801075 
	C6.503151,35.752636 7.233747,35.704201 8.468892,35.913513 
	C8.643700,35.984997 8.818506,36.056477 8.999445,36.845051 
	C9.260985,37.763138 9.522526,38.681221 9.784066,39.599308 
	C10.070843,39.552155 10.357618,39.505005 10.644395,39.457851 
	C10.765303,38.350471 10.886211,37.243092 11.764224,35.983597 
	C17.539833,34.780296 19.988270,31.620529 19.092508,26.526272 
	C18.303900,22.041412 14.760325,20.067896 8.179905,20.735394 
	C7.111589,20.782108 6.043274,20.828823 4.365069,20.926437 
	C4.520159,21.392933 4.675250,21.859428 4.825860,23.199594 
M59.861065,31.000725 
	C58.873020,32.342426 57.884975,33.684132 56.211243,35.077438 
	C47.902737,41.943550 38.383934,45.843044 27.349358,46.358936 
	C28.024532,47.867813 28.513056,48.959564 28.859587,49.733994 
	C26.734520,50.181259 24.860136,50.575764 23.001381,50.999043 
	C23.001381,50.999043 22.973583,50.987526 22.400396,50.563496 
	C20.964548,50.078506 19.555620,49.309612 18.086988,49.170345 
	C15.409917,48.916496 12.697446,49.035969 10.000000,49.000000 
	C10.000000,49.000000 10.000246,49.000156 9.912058,48.363335 
	C7.586962,48.057449 6.373992,49.924522 6.497230,53.636848 
	C6.139860,54.541710 5.782490,55.446575 5.425120,56.351433 
	C6.005951,56.458054 6.586782,56.564671 7.167612,56.671291 
	C7.133291,55.433716 7.098971,54.196144 7.517818,52.428814 
	C10.168774,52.428814 12.819730,52.428814 15.470685,52.428814 
	C15.271323,52.946270 15.071961,53.463726 14.872600,53.981178 
	C15.821967,54.430588 16.792383,55.282581 17.715729,55.234299 
	C19.073719,55.163292 20.398111,54.449722 22.008614,54.595688 
	C22.975016,54.784767 23.941418,54.973846 25.327141,54.592270 
	C28.413292,54.811768 31.499443,55.031265 33.969833,55.206966 
	C35.807693,54.401901 37.395809,53.706238 38.682972,53.490253 
	C38.746735,54.256218 38.795967,55.690834 38.876331,55.692577 
	C43.779224,55.799107 48.684669,55.788151 54.994568,55.788151 
	C52.693707,53.951546 51.773495,53.217007 50.853283,52.482471 
	C51.099697,52.145622 51.346111,51.808773 51.592529,51.471920 
	C53.625134,52.699951 55.657742,53.927982 57.640728,55.126038 
	C57.640728,53.229855 57.640728,51.325855 57.640728,48.942154 
	C54.177261,49.586681 51.201347,50.140476 47.547058,50.820515 
	C47.726986,51.204609 47.074257,50.285355 46.898628,49.282543 
	C46.764160,48.514748 47.232452,47.641392 47.432652,46.814987 
	C46.916031,46.104267 46.399410,45.393551 45.882790,44.682831 
	C46.013844,50.708546 43.126232,48.928143 41.652061,48.598972 
	C40.562588,50.409702 39.787045,51.698669 39.013599,52.194275 
	C38.751205,50.297638 38.488811,48.400997 38.403759,47.786221 
	C43.405151,45.366398 47.913151,43.577911 52.007664,41.104839 
	C57.123745,38.014740 61.994152,34.795845 68.430519,35.960831 
	C70.330414,36.304710 72.345200,36.013813 74.602341,36.013813 
	C74.374893,34.059422 74.207283,32.619133 74.467865,30.563120 
	C78.454865,29.492676 81.206932,30.287071 80.971344,35.341724 
	C82.569283,35.127209 83.806320,34.961140 85.363632,34.752075 
	C83.817032,30.875059 82.413597,27.350615 81.003777,23.828722 
	C80.757812,23.214260 80.611359,22.499605 80.196228,22.026772 
	C79.500053,21.233831 78.708504,20.263369 77.790520,20.033869 
	C77.313477,19.914606 76.220818,21.102674 75.853706,21.904928 
	C74.490578,24.883804 73.313278,27.947716 71.294296,31.000429 
	C69.978096,31.567430 68.602844,32.679386 67.362633,32.545010 
	C66.171463,32.415951 65.120193,30.995691 64.356606,29.548800 
	C68.758904,21.592718 74.771698,14.194038 72.506920,3.670803 
	C70.995674,6.141391 69.484421,8.611980 68.014008,11.945929 
	C68.080994,12.519311 68.147980,13.092694 68.280472,14.394105 
	C66.918175,17.069744 65.555878,19.745380 64.170433,21.402508 
	C62.652004,20.784958 61.133575,20.167406 59.396107,19.460770 
	C59.666294,23.806124 59.871445,27.105522 59.861065,31.000725 
M100.836365,32.547756 
	C103.707100,35.092556 106.960808,37.000004 110.681190,34.953663 
	C112.254639,34.088215 113.827820,31.853546 113.940323,30.145031 
	C114.026299,28.839357 111.899139,27.296518 110.601669,26.015997 
	C109.206474,24.639038 107.630684,23.445070 106.133698,22.171257 
	C108.116646,22.454737 110.097374,22.756411 112.085197,23.000141 
	C112.352791,23.032951 112.656174,22.773935 112.944283,22.649494 
	C110.911026,18.839920 106.105515,18.385508 103.034843,21.658865 
	C102.104301,22.650833 101.047386,23.524256 99.429947,23.770254 
	C96.884918,16.421045 91.000389,21.518950 87.017609,19.776073 
	C87.017609,25.220158 87.017609,30.055166 87.017609,35.486450 
	C91.599556,34.077663 96.710304,37.747089 100.836365,32.547756 
M46.434814,27.928892 
	C46.289001,28.008583 46.124218,28.066971 46.003311,28.174633 
	C45.904812,28.262346 45.769943,28.446533 45.802647,28.524010 
	C46.469139,30.102890 47.157463,31.672556 47.841427,33.244061 
	C46.798050,33.576691 45.218010,34.504738 44.807743,34.134953 
	C43.331696,32.804546 41.267658,31.052601 41.240475,29.429543 
	C41.194828,26.704029 42.540161,23.955217 43.265919,21.339922 
	C39.248817,21.508713 36.833622,24.257952 37.071896,28.910995 
	C37.317631,33.709759 41.095123,36.621181 46.466354,36.151573 
	C51.355122,35.724155 52.159809,34.497387 51.488316,28.129919 
	C50.097260,28.041643 48.649914,27.949795 46.434814,27.928892 
M84.862823,49.732426 
	C80.351288,49.959713 75.839752,50.187000 70.672951,50.447300 
	C73.116768,52.718609 75.485680,54.920307 77.854599,57.122005 
	C78.206085,56.836544 78.557579,56.551083 78.909065,56.265621 
	C78.564072,54.926994 78.219070,53.588367 77.833817,52.093536 
	C79.447510,52.527718 80.611801,53.058434 81.794121,53.102222 
	C83.168983,53.153141 84.559654,52.777424 86.418121,52.521511 
	C85.976822,54.293762 85.707054,55.377144 85.437286,56.460526 
	C85.990189,56.629650 86.543091,56.798779 87.095993,56.967907 
	C87.716812,54.920944 88.424255,52.889744 88.804604,50.799038 
	C88.837318,50.619213 86.701698,50.044918 84.862823,49.732426 
M65.763336,53.942474 
	C66.112030,53.275036 66.460724,52.607594 66.809418,51.940155 
	C65.119423,52.075619 63.738125,52.698250 63.207897,53.749954 
	C62.905895,54.348965 63.862797,55.756798 64.533264,56.568855 
	C64.742134,56.821838 65.869217,56.316708 66.575958,56.158630 
	C66.268486,55.615875 65.961014,55.073116 65.763336,53.942474 
M51.843822,23.658388 
	C51.132526,22.691097 50.421230,21.723808 49.709938,20.756517 
	C49.309547,21.273994 48.909153,21.791471 48.508762,22.308949 
	C49.547676,22.972296 50.586590,23.635641 51.843822,23.658388 
M96.940720,53.616081 
	C96.449043,54.254620 95.957367,54.893154 95.465691,55.531689 
	C95.936028,55.733013 96.406357,55.934338 96.876694,56.135662 
	C97.070435,55.191475 97.264168,54.247288 96.940720,53.616081 
M68.722572,47.700733 
	C69.196320,47.870632 69.670059,48.040535 70.143799,48.210438 
	C70.234032,47.654663 70.324265,47.098888 70.414505,46.543118 
	C69.927155,46.757660 69.439796,46.972202 68.722572,47.700733 
M75.805634,47.381115 
	C75.861221,48.000340 75.916801,48.619564 75.972382,49.238785 
	C76.232063,49.176952 76.721191,49.079754 76.717903,49.058460 
	C76.633316,48.509659 76.497398,47.968773 75.805634,47.381115 
M78.376266,47.208340 
	C78.733864,47.255196 79.091454,47.302052 79.449059,47.348904 
	C79.452805,47.093014 79.456551,46.837124 79.460297,46.581234 
	C79.101616,46.621979 78.742943,46.662727 78.376266,47.208340 
M110.609917,45.795364 
	C110.211540,45.791054 109.813171,45.786739 109.414795,45.782425 
	C109.413208,45.947742 109.400574,46.256763 109.411629,46.257610 
	C109.808121,46.288094 110.206825,46.289791 110.609917,45.795364 
M61.248337,50.070148 
	C61.605598,50.044201 61.962864,50.018253 62.320126,49.992306 
	C62.244694,49.741871 62.169266,49.491432 62.093838,49.240997 
	C61.832638,49.364910 61.571438,49.488819 61.248337,50.070148 
M81.525696,57.615318 
	C81.469742,57.834656 81.413788,58.053997 81.357826,58.273335 
	C81.496033,58.132153 81.634247,57.990974 81.525696,57.615318 
M93.488876,54.524612 
	C93.265495,54.410748 93.049751,54.271431 92.813461,54.200630 
	C92.753212,54.182583 92.627876,54.381802 92.532440,54.481197 
	C92.755066,54.594807 92.977699,54.708416 93.488876,54.524612 
M105.955292,46.546154 
	C105.489189,46.458626 105.023079,46.371101 104.556976,46.283577 
	C104.873451,46.563580 105.189926,46.843582 105.955292,46.546154 
M102.403915,47.480217 
	C102.403915,47.480217 102.536850,47.400421 102.403915,47.480217 
M63.394917,47.481422 
	C63.394917,47.481422 63.524380,47.399605 63.394917,47.481422 
z"/>
<path fill="#FAFAF8" opacity="1.000000" stroke="none" 
	d="
M38.983921,53.010574 
	C37.395809,53.706238 35.807693,54.401901 33.969833,55.206966 
	C31.499443,55.031265 28.413292,54.811768 24.817013,54.656353 
	C23.798843,54.028595 23.290802,53.336754 22.782761,52.644917 
	C22.434111,53.099903 22.085463,53.554893 21.736816,54.009884 
	C20.398111,54.449722 19.073719,55.163292 17.715729,55.234299 
	C16.792383,55.282581 15.821967,54.430588 14.872600,53.981178 
	C15.071961,53.463726 15.271323,52.946270 15.470685,52.428814 
	C12.819730,52.428814 10.168774,52.428814 7.237177,52.727127 
	C6.956536,53.025440 6.844378,53.085289 6.844378,53.085289 
	C6.373992,49.924522 7.586962,48.057449 9.752493,48.804558 
	C9.607344,49.593220 9.621761,49.940651 9.636179,50.288086 
	C9.757367,49.858624 9.878555,49.429157 9.999744,48.999695 
	C12.697446,49.035969 15.409917,48.916496 18.086988,49.170345 
	C19.555620,49.309612 20.964548,50.078506 22.723728,51.085266 
	C23.288790,51.651192 23.530518,51.695351 23.772245,51.739510 
	C23.510082,51.483093 23.247919,51.226681 22.985754,50.970268 
	C24.860136,50.575764 26.734520,50.181259 28.859587,49.733994 
	C28.513056,48.959564 28.024532,47.867813 27.349358,46.358936 
	C38.383934,45.843044 47.902737,41.943550 56.951828,35.133202 
	C62.002148,36.266026 61.965549,31.903847 64.007446,30.142818 
	C65.120193,30.995691 66.171463,32.415951 67.362633,32.545010 
	C68.602844,32.679386 69.978096,31.567430 72.008011,31.042692 
	C73.161041,31.116251 73.600357,31.147547 74.039665,31.178841 
	C74.207283,32.619133 74.374893,34.059422 74.602341,36.013813 
	C72.345200,36.013813 70.330414,36.304710 68.430519,35.960831 
	C61.994152,34.795845 57.123745,38.014740 52.007664,41.104839 
	C47.913151,43.577911 43.405151,45.366398 38.403759,47.786221 
	C38.488811,48.400997 38.751205,50.297638 39.006454,52.597366 
	C38.999313,53.000454 38.983921,53.010574 38.983921,53.010574 
M33.283764,51.002789 
	C32.680206,51.330879 32.076645,51.658970 31.473087,51.987061 
	C31.767092,52.267494 32.061096,52.547932 32.355103,52.828369 
	C32.914700,52.226631 33.474300,51.624893 34.578747,50.720242 
	C34.933090,50.050129 35.287434,49.380013 35.641781,48.709900 
	C35.335217,48.579697 35.028652,48.449497 34.722088,48.319294 
	C34.469040,49.200638 34.215996,50.081978 33.283764,51.002789 
z"/>
<path fill="#94C22B" opacity="1.000000" stroke="none" 
	d="
M99.967278,32.318764 
	C96.710304,37.747089 91.599556,34.077663 87.017609,35.486450 
	C87.017609,30.055166 87.017609,25.220158 87.017609,19.776073 
	C91.000389,21.518950 96.884918,16.421045 99.741150,24.092710 
	C100.052361,24.415167 100.027527,24.490564 99.599808,24.643730 
	C99.488258,26.772638 99.804420,28.748381 100.106499,30.928093 
	C100.050705,31.527632 100.008995,31.923197 99.967278,32.318764 
M93.322701,33.814651 
	C95.942421,33.176853 97.233856,31.588125 95.624031,29.188507 
	C95.108269,28.419725 93.064514,28.676033 91.719849,28.463339 
	C91.985786,30.244287 92.251724,32.025238 93.322701,33.814651 
z"/>
<path fill="#90C025" opacity="1.000000" stroke="none" 
	d="
M100.027527,24.490564 
	C100.027527,24.490564 100.052361,24.415167 100.050362,24.433573 
	C101.047386,23.524256 102.104301,22.650833 103.034843,21.658865 
	C106.105515,18.385508 110.911026,18.839920 112.944283,22.649494 
	C112.656174,22.773935 112.352791,23.032951 112.085197,23.000141 
	C110.097374,22.756411 108.116646,22.454737 106.133698,22.171257 
	C107.630684,23.445070 109.206474,24.639038 110.601669,26.015997 
	C111.899139,27.296518 114.026299,28.839357 113.940323,30.145031 
	C113.827820,31.853546 112.254639,34.088215 110.681190,34.953663 
	C106.960808,37.000004 103.707100,35.092556 100.401825,32.433258 
	C100.008995,31.923197 100.050705,31.527632 100.429092,31.201008 
	C102.422371,32.020622 104.018272,33.044445 105.755875,33.430645 
	C107.017372,33.711025 108.524628,33.308201 109.791496,32.849091 
	C110.113907,32.732246 110.292702,30.699984 109.936668,30.467365 
	C106.709541,28.358891 103.349007,26.454622 100.027527,24.490564 
z"/>
<path fill="#1C1D1B" opacity="1.000000" stroke="none" 
	d="
M64.182022,29.845808 
	C61.965549,31.903847 62.002148,36.266026 57.294674,35.107399 
	C57.884975,33.684132 58.873020,32.342426 60.267616,30.492661 
	C61.847301,27.463404 63.020443,24.942211 64.193581,22.421019 
	C65.555878,19.745380 66.918175,17.069744 68.491714,13.779495 
	C68.459702,12.470780 68.216438,11.776674 67.973175,11.082568 
	C69.484421,8.611980 70.995674,6.141391 72.506920,3.670803 
	C74.771698,14.194038 68.758904,21.592718 64.182022,29.845808 
z"/>
<path fill="#90C225" opacity="1.000000" stroke="none" 
	d="
M30.716492,25.640909 
	C32.334824,28.895252 33.953159,32.149597 35.692486,35.647243 
	C34.043232,35.647243 32.488728,35.647243 31.413132,35.647243 
	C30.047529,33.243362 28.820042,31.082607 27.592554,28.921852 
	C27.126553,29.011126 26.660551,29.100399 26.194548,29.189672 
	C25.991716,31.287258 25.788885,33.384842 25.569553,35.653061 
	C24.258638,35.653061 22.850859,35.653061 21.548695,35.653061 
	C21.548695,30.691633 21.548695,25.962023 21.548695,20.877686 
	C22.861986,20.877686 24.371365,20.877686 25.925995,20.877686 
	C25.925995,22.919403 25.925995,24.806858 25.925995,27.405979 
	C27.338867,26.381985 28.221571,25.742235 29.663174,25.163673 
	C30.386879,25.363544 30.551685,25.502228 30.716492,25.640909 
z"/>
<path fill="#FAFAF8" opacity="1.000000" stroke="none" 
	d="
M39.005409,52.994045 
	C39.787045,51.698669 40.562588,50.409702 41.652061,48.598972 
	C43.126232,48.928143 46.013844,50.708546 45.882790,44.682831 
	C46.399410,45.393551 46.916031,46.104267 47.432652,46.814987 
	C47.232452,47.641392 46.764160,48.514748 46.898628,49.282543 
	C47.074257,50.285355 47.726986,51.204609 47.547058,50.820515 
	C51.201347,50.140476 54.177261,49.586681 57.640728,48.942154 
	C57.640728,51.325855 57.640728,53.229855 57.640728,55.126038 
	C55.657742,53.927982 53.625134,52.699951 51.592529,51.471920 
	C51.346111,51.808773 51.099697,52.145622 50.853283,52.482471 
	C51.773495,53.217007 52.693707,53.951546 54.994568,55.788151 
	C48.684669,55.788151 43.779224,55.799107 38.876331,55.692577 
	C38.795967,55.690834 38.746735,54.256218 38.833447,53.250412 
	C38.983921,53.010574 38.999313,53.000454 39.005409,52.994045 
z"/>
<path fill="#8FC126" opacity="1.000000" stroke="none" 
	d="
M46.818695,27.893417 
	C48.649914,27.949795 50.097260,28.041643 51.488316,28.129919 
	C52.159809,34.497387 51.355122,35.724155 46.466354,36.151573 
	C41.095123,36.621181 37.317631,33.709759 37.071896,28.910995 
	C36.833622,24.257952 39.248817,21.508713 43.265919,21.339922 
	C42.540161,23.955217 41.194828,26.704029 41.240475,29.429543 
	C41.267658,31.052601 43.331696,32.804546 44.807743,34.134953 
	C45.218010,34.504738 46.798050,33.576691 47.841427,33.244061 
	C47.157463,31.672556 46.469139,30.102890 45.802647,28.524010 
	C45.769943,28.446533 45.904812,28.262346 46.003311,28.174633 
	C46.124218,28.066971 46.289001,28.008583 46.818695,27.893417 
z"/>
<path fill="#8EBF21" opacity="1.000000" stroke="none" 
	d="
M74.253769,30.870979 
	C73.600357,31.147547 73.161041,31.116251 72.393967,31.032322 
	C73.313278,27.947716 74.490578,24.883804 75.853706,21.904928 
	C76.220818,21.102674 77.313477,19.914606 77.790520,20.033869 
	C78.708504,20.263369 79.500053,21.233831 80.196228,22.026772 
	C80.611359,22.499605 80.757812,23.214260 81.003777,23.828722 
	C82.413597,27.350615 83.817032,30.875059 85.363632,34.752075 
	C83.806320,34.961140 82.569283,35.127209 80.971344,35.341724 
	C81.206932,30.287071 78.454865,29.492676 74.253769,30.870979 
z"/>
<path fill="#94C42E" opacity="1.000000" stroke="none" 
	d="
M8.993314,36.127956 
	C8.818506,36.056477 8.643700,35.984997 8.238007,35.443802 
	C8.084086,34.525482 8.161052,34.076870 8.614909,33.787510 
	C13.134770,34.890182 14.893033,32.699680 15.139069,28.986061 
	C15.421006,24.730556 13.827900,21.869011 8.987761,21.703144 
	C8.977121,21.250624 8.973396,21.069605 8.969671,20.888584 
	C14.760325,20.067896 18.303900,22.041412 19.092508,26.526272 
	C19.988270,31.620529 17.539833,34.780296 11.052912,35.986740 
	C9.892171,36.035912 9.442742,36.081932 8.993314,36.127956 
z"/>
<path fill="#FAFAF8" opacity="1.000000" stroke="none" 
	d="
M85.218079,49.693146 
	C86.701698,50.044918 88.837318,50.619213 88.804604,50.799038 
	C88.424255,52.889744 87.716812,54.920944 87.095993,56.967907 
	C86.543091,56.798779 85.990189,56.629650 85.437286,56.460526 
	C85.707054,55.377144 85.976822,54.293762 86.418121,52.521511 
	C84.559654,52.777424 83.168983,53.153141 81.794121,53.102222 
	C80.611801,53.058434 79.447510,52.527718 77.833817,52.093536 
	C78.219070,53.588367 78.564072,54.926994 78.909065,56.265621 
	C78.557579,56.551083 78.206085,56.836544 77.854599,57.122005 
	C75.485680,54.920307 73.116768,52.718609 70.672951,50.447300 
	C75.839752,50.187000 80.351288,49.959713 85.218079,49.693146 
z"/>
<path fill="#88BD12" opacity="1.000000" stroke="none" 
	d="
M8.238016,33.628258 
	C8.161052,34.076870 8.084086,34.525482 7.985732,35.314930 
	C7.233747,35.704201 6.503151,35.752636 5.405611,35.421341 
	C4.991438,34.626446 4.944209,34.211288 4.896980,33.796127 
	C4.873273,30.263950 4.849567,26.731771 4.882664,22.401623 
	C4.951299,21.360945 4.963129,21.118242 4.974959,20.875538 
	C6.043274,20.828823 7.111589,20.782108 8.574788,20.811989 
	C8.973396,21.069605 8.977121,21.250624 8.777121,22.049250 
	C8.461602,26.320656 8.349809,29.974457 8.238016,33.628258 
z"/>
<path fill="#E5E5E5" opacity="1.000000" stroke="none" 
	d="
M107.347488,51.881489 
	C106.177101,58.937321 104.741798,60.155590 96.412964,59.665760 
	C99.071884,58.364040 100.424248,57.602253 101.851433,57.025677 
	C104.238426,56.061340 105.853485,54.878273 103.523628,51.748650 
	C103.313622,50.880280 103.416275,50.423729 103.518921,49.967175 
	C104.552246,49.943890 105.585564,49.920601 106.950546,50.303474 
	C107.303970,51.100254 107.325729,51.490871 107.347488,51.881489 
z"/>
<path fill="#8FBF25" opacity="1.000000" stroke="none" 
	d="
M64.182007,21.911762 
	C63.020443,24.942211 61.847301,27.463404 60.375381,30.194759 
	C59.871445,27.105522 59.666294,23.806124 59.396107,19.460770 
	C61.133575,20.167406 62.652004,20.784958 64.182007,21.911762 
z"/>
<path fill="#FAFAF8" opacity="1.000000" stroke="none" 
	d="
M17.003950,42.995975 
	C20.335482,42.920246 23.622324,42.953121 25.829311,45.610329 
	C25.626686,46.116177 25.424059,46.622028 25.221434,47.127876 
	C22.503696,45.950401 19.785959,44.772923 17.034101,43.297733 
	C16.999981,43.000023 17.003950,42.995975 17.003950,42.995975 
z"/>
<path fill="#FAFAF8" opacity="1.000000" stroke="none" 
	d="
M65.708435,54.236420 
	C65.961014,55.073116 66.268486,55.615875 66.575958,56.158630 
	C65.869217,56.316708 64.742134,56.821838 64.533264,56.568855 
	C63.862797,55.756798 62.905895,54.348965 63.207897,53.749954 
	C63.738125,52.698250 65.119423,52.075619 66.809418,51.940155 
	C66.460724,52.607594 66.112030,53.275036 65.708435,54.236420 
z"/>
<path fill="#FAFAF8" opacity="1.000000" stroke="none" 
	d="
M31.992565,23.024240 
	C31.428701,22.325773 30.864836,21.627306 29.338747,19.736917 
	C32.160427,20.420246 33.686958,20.789928 36.048462,21.361816 
	C34.671146,22.481638 33.787739,23.199888 32.511551,23.719988 
	C32.076706,23.355972 32.034637,23.190107 31.992565,23.024240 
z"/>
<path fill="#FAFAF8" opacity="1.000000" stroke="none" 
	d="
M100.830833,52.007439 
	C99.676208,51.193886 98.521584,50.380333 97.195633,49.045994 
	C97.028664,48.345360 97.033012,48.165512 97.037369,47.985664 
	C98.474739,48.303825 99.912102,48.621983 101.526260,49.267822 
	C101.412315,50.399479 101.121574,51.203461 100.830833,52.007439 
z"/>
<path fill="#FAFAF8" opacity="1.000000" stroke="none" 
	d="
M51.734665,23.978687 
	C50.586590,23.635641 49.547676,22.972296 48.508762,22.308949 
	C48.909153,21.791471 49.309547,21.273994 49.709938,20.756517 
	C50.421230,21.723808 51.132526,22.691097 51.734665,23.978687 
z"/>
<path fill="#FAFAF8" opacity="1.000000" stroke="none" 
	d="
M7.010593,52.992004 
	C7.098971,54.196144 7.133291,55.433716 7.167612,56.671288 
	C6.586782,56.564671 6.005951,56.458054 5.425120,56.351433 
	C5.782490,55.446575 6.139860,54.541710 6.670804,53.361069 
	C6.844378,53.085289 6.956536,53.025440 7.010593,52.992004 
z"/>
<path fill="#FAFAF8" opacity="1.000000" stroke="none" 
	d="
M8.996380,36.486504 
	C9.442742,36.081932 9.892171,36.035912 10.674359,36.062798 
	C10.886211,37.243092 10.765303,38.350471 10.644395,39.457851 
	C10.357618,39.505005 10.070843,39.552155 9.784066,39.599308 
	C9.522526,38.681221 9.260985,37.763138 8.996380,36.486504 
z"/>
<path fill="#727272" opacity="1.000000" stroke="none" 
	d="
M100.890274,52.340652 
	C101.121574,51.203461 101.412315,50.399479 101.835526,49.291744 
	C102.368019,49.125721 102.768036,49.263451 103.343491,49.684177 
	C103.416275,50.423729 103.313622,50.880280 103.185120,51.687294 
	C102.865059,52.552856 102.570854,53.067959 101.878891,53.851883 
	C101.291588,54.089504 101.102028,54.058308 100.912476,54.027107 
	C100.924881,53.576027 100.937294,53.124943 100.890274,52.340652 
z"/>
<path fill="#EDEDED" opacity="1.000000" stroke="none" 
	d="
M96.737762,47.856079 
	C97.033012,48.165512 97.028664,48.345360 97.009277,48.795380 
	C95.812683,49.241985 94.631119,49.418423 93.449547,49.594860 
	C93.371361,49.166248 93.293167,48.737637 93.214981,48.309029 
	C94.289368,48.114849 95.363762,47.920670 96.737762,47.856079 
z"/>
<path fill="#EDEDED" opacity="1.000000" stroke="none" 
	d="
M97.199310,53.459591 
	C97.264168,54.247288 97.070435,55.191475 96.876694,56.135662 
	C96.406357,55.934338 95.936028,55.733013 95.465691,55.531689 
	C95.957367,54.893154 96.449043,54.254620 97.199310,53.459591 
z"/>
<path fill="#FAFAF8" opacity="1.000000" stroke="none" 
	d="
M68.837509,47.443741 
	C69.439796,46.972202 69.927155,46.757660 70.414505,46.543118 
	C70.324265,47.098888 70.234032,47.654663 70.143799,48.210438 
	C69.670059,48.040535 69.196320,47.870632 68.837509,47.443741 
z"/>
<path fill="#FAFAF8" opacity="1.000000" stroke="none" 
	d="
M76.088005,47.403816 
	C76.497398,47.968773 76.633316,48.509659 76.717903,49.058460 
	C76.721191,49.079754 76.232063,49.176952 75.972382,49.238785 
	C75.916801,48.619564 75.861221,48.000340 76.088005,47.403816 
z"/>
<path fill="#757575" opacity="1.000000" stroke="none" 
	d="
M21.872715,54.302788 
	C22.085463,53.554893 22.434111,53.099903 22.782761,52.644917 
	C23.290802,53.336754 23.798843,54.028595 24.607353,54.941681 
	C23.941418,54.973846 22.975016,54.784767 21.872715,54.302788 
z"/>
<path fill="#FAFAF8" opacity="1.000000" stroke="none" 
	d="
M14.997474,42.002594 
	C13.961056,41.696411 12.924637,41.390228 11.888218,41.084045 
	C12.037890,40.673523 12.187562,40.262997 12.337234,39.852474 
	C13.114440,40.398266 13.891647,40.944054 14.834431,41.744919 
	C15.000007,42.000000 14.997474,42.002594 14.997474,42.002594 
z"/>
<path fill="#E5E5E5" opacity="1.000000" stroke="none" 
	d="
M100.682541,54.186432 
	C101.102028,54.058308 101.291588,54.089504 101.769241,54.127522 
	C101.746574,54.647099 101.435806,55.159859 101.125038,55.672623 
	C100.900894,55.230335 100.676750,54.788048 100.682541,54.186432 
z"/>
<path fill="#FAFAF8" opacity="1.000000" stroke="none" 
	d="
M78.380264,46.955906 
	C78.742943,46.662727 79.101616,46.621979 79.460297,46.581234 
	C79.456551,46.837124 79.452805,47.093014 79.449051,47.348904 
	C79.091454,47.302052 78.733864,47.255196 78.380264,46.955906 
z"/>
<path fill="#FAFAF8" opacity="1.000000" stroke="none" 
	d="
M110.607567,46.045433 
	C110.206825,46.289791 109.808121,46.288094 109.411629,46.257610 
	C109.400574,46.256763 109.413208,45.947742 109.414795,45.782425 
	C109.813171,45.786739 110.211540,45.791054 110.607567,46.045433 
z"/>
<path fill="#FAFAF8" opacity="1.000000" stroke="none" 
	d="
M15.001240,41.998367 
	C15.659020,42.153854 16.315569,42.310966 16.988033,42.732025 
	C17.003950,42.995975 16.999981,43.000023 16.998055,43.002563 
	C16.340332,42.846840 15.684536,42.688576 15.013107,42.266453 
	C14.997474,42.002594 15.000007,42.000000 15.001240,41.998367 
z"/>
<path fill="#FAFAF8" opacity="1.000000" stroke="none" 
	d="
M107.601990,51.869270 
	C107.325729,51.490871 107.303970,51.100254 107.321518,50.418247 
	C107.787636,50.406433 108.214439,50.686005 108.641251,50.965576 
	C108.379662,51.262733 108.118080,51.559891 107.601990,51.869270 
z"/>
<path fill="#90C225" opacity="1.000000" stroke="none" 
	d="
M31.689472,23.039232 
	C32.034637,23.190107 32.076706,23.355972 32.195534,23.766771 
	C31.906563,24.443468 31.540842,24.875229 30.945807,25.473949 
	C30.551685,25.502228 30.386879,25.363544 29.992085,24.997890 
	C30.303526,24.198687 30.844952,23.626455 31.689472,23.039232 
z"/>
<path fill="#FAFAF8" opacity="1.000000" stroke="none" 
	d="
M61.279289,49.841438 
	C61.571438,49.488819 61.832638,49.364910 62.093838,49.240997 
	C62.169266,49.491432 62.244694,49.741871 62.320126,49.992306 
	C61.962864,50.018253 61.605598,50.044201 61.279289,49.841438 
z"/>
<path fill="#FAFAF8" opacity="1.000000" stroke="none" 
	d="
M81.649078,57.732555 
	C81.634247,57.990974 81.496033,58.132153 81.357826,58.273335 
	C81.413788,58.053997 81.469742,57.834656 81.649078,57.732555 
z"/>
<path fill="#EDEDED" opacity="1.000000" stroke="none" 
	d="
M93.344604,54.673317 
	C92.977699,54.708416 92.755066,54.594807 92.532440,54.481197 
	C92.627876,54.381802 92.753212,54.182583 92.813461,54.200630 
	C93.049751,54.271431 93.265495,54.410748 93.344604,54.673317 
z"/>
<path fill="#FAFAF8" opacity="1.000000" stroke="none" 
	d="
M67.993591,11.514248 
	C68.216438,11.776674 68.459702,12.470780 68.458954,13.415482 
	C68.147980,13.092694 68.080994,12.519311 67.993591,11.514248 
z"/>
<path fill="#94C42E" opacity="1.000000" stroke="none" 
	d="
M4.663809,33.978615 
	C4.944209,34.211288 4.991438,34.626446 5.043932,35.354889 
	C4.843011,35.165813 4.636825,34.663456 4.663809,33.978615 
z"/>
<path fill="#C6C6C6" opacity="1.000000" stroke="none" 
	d="
M105.730850,46.834869 
	C105.189926,46.843582 104.873451,46.563580 104.556976,46.283577 
	C105.023079,46.371101 105.489189,46.458626 105.730850,46.834869 
z"/>
<path fill="#94C42E" opacity="1.000000" stroke="none" 
	d="
M4.670014,20.900988 
	C4.963129,21.118242 4.951299,21.360945 4.884904,21.964787 
	C4.675250,21.859428 4.520159,21.392933 4.670014,20.900988 
z"/>
<path fill="#E5E5E5" opacity="1.000000" stroke="none" 
	d="
M102.470383,47.440319 
	C102.536850,47.400421 102.403915,47.480217 102.470383,47.440319 
z"/>
<path fill="#FAFAF8" opacity="1.000000" stroke="none" 
	d="
M63.459648,47.440514 
	C63.524380,47.399605 63.394917,47.481422 63.459648,47.440514 
z"/>
<path fill="#FFFFFF" opacity="1.000000" stroke="none" 
	d="
M34.033901,51.023155 
	C33.474300,51.624893 32.914700,52.226631 32.355103,52.828369 
	C32.061096,52.547932 31.767092,52.267494 31.473087,51.987061 
	C32.076645,51.658970 32.680206,51.330879 33.640289,50.999001 
	C33.996815,50.995209 34.033901,51.023155 34.033901,51.023155 
z"/>
<path fill="#FFFFFF" opacity="1.000000" stroke="none" 
	d="
M33.979881,50.979263 
	C34.215996,50.081978 34.469040,49.200638 34.722088,48.319294 
	C35.028652,48.449497 35.335217,48.579697 35.641781,48.709900 
	C35.287434,49.380013 34.933090,50.050129 34.306324,50.871696 
	C34.033901,51.023155 33.996815,50.995209 33.979881,50.979263 
z"/>
<path fill="#FFFFFF" opacity="1.000000" stroke="none" 
	d="
M9.999872,48.999847 
	C9.878555,49.429157 9.757367,49.858624 9.636179,50.288086 
	C9.621761,49.940651 9.607344,49.593220 9.796587,49.122971 
	C10.000246,49.000156 10.000000,49.000000 9.999872,48.999847 
z"/>
<path fill="#757575" opacity="1.000000" stroke="none" 
	d="
M22.993568,50.984657 
	C23.247919,51.226681 23.510082,51.483093 23.772245,51.739510 
	C23.530518,51.695351 23.288790,51.651192 23.010323,51.297279 
	C22.973583,50.987526 23.001381,50.999043 22.993568,50.984657 
z"/>
<path fill="#FFFFFF" opacity="1.000000" stroke="none" 
	d="
M99.599808,24.643730 
	C103.349007,26.454622 106.709541,28.358891 109.936668,30.467365 
	C110.292702,30.699984 110.113907,32.732246 109.791496,32.849091 
	C108.524628,33.308201 107.017372,33.711025 105.755875,33.430645 
	C104.018272,33.044445 102.422371,32.020622 100.443176,30.997038 
	C99.804420,28.748381 99.488258,26.772638 99.599808,24.643730 
z"/>
<path fill="#F3F8E8" opacity="1.000000" stroke="none" 
	d="
M92.920181,33.810417 
	C92.251724,32.025238 91.985786,30.244287 91.719849,28.463339 
	C93.064514,28.676033 95.108269,28.419725 95.624031,29.188507 
	C97.233856,31.588125 95.942421,33.176853 92.920181,33.810417 
z"/>
<path fill="#F5F9EC" opacity="1.000000" stroke="none" 
	d="
M8.614908,33.787510 
	C8.349809,29.974457 8.461602,26.320656 8.784036,22.320751 
	C13.827900,21.869011 15.421006,24.730556 15.139069,28.986061 
	C14.893033,32.699680 13.134770,34.890182 8.614908,33.787510 
z"/>
</svg>